HIERARCHY
ROOT root
{
	OFFSET 0.000000 0.000000 0.000000
	CHANNELS 6 Xposition Yposition Zposition Zrotation Yrotation Xrotation
	JOINT lhip
	{
		OFFSET 0.058581 -0.082280 -0.017664
		CHANNELS 3 Zrotation Yrotation Xrotation
		JOINT lknee
		{
			OFFSET 0.043451 -0.386469 0.008037
			CHANNELS 3 Zrotation Yrotation Xrotation
			JOINT lankle
			{
				OFFSET -0.014790 -0.426874 -0.037428
				CHANNELS 3 Zrotation Yrotation Xrotation
				JOINT ltoe
				{
					OFFSET 0.041054 -0.060286 0.122042
					CHANNELS 3 Zrotation Yrotation Xrotation
					End Site
					{
						OFFSET 0.000000 0.000000 0.000000
					}
				}
			}
		}
	}
	JOINT rhip
	{
		OFFSET -0.060310 -0.090513 -0.013543
		CHANNELS 3 Zrotation Yrotation Xrotation
		JOINT rknee
		{
			OFFSET -0.043257 -0.383688 -0.004843
			CHANNELS 3 Zrotation Yrotation Xrotation
			JOINT rankle
			{
				OFFSET 0.019056 -0.420046 -0.034562
				CHANNELS 3 Zrotation Yrotation Xrotation
				JOINT rtoe
				{
					OFFSET -0.034840 -0.062106 0.130323
					CHANNELS 3 Zrotation Yrotation Xrotation
					End Site
					{
						OFFSET 0.000000 0.000000 0.000000
					}
				}
			}
		}
	}
	JOINT lowerback
	{
		OFFSET 0.004439 0.124404 -0.038385
		CHANNELS 3 Zrotation Yrotation Xrotation
		JOINT upperback
		{
			OFFSET 0.004488 0.137956 0.026820
			CHANNELS 3 Zrotation Yrotation Xrotation
			JOINT chest
			{
				OFFSET -0.002265 0.056032 0.002855
				CHANNELS 3 Zrotation Yrotation Xrotation
				JOINT lowerneck
				{
					OFFSET -0.013390 0.211636 -0.033468
					CHANNELS 3 Zrotation Yrotation Xrotation
					JOINT upperneck
					{
						OFFSET 0.010113 0.088937 0.050410
						CHANNELS 3 Zrotation Yrotation Xrotation
						End Site
						{
							OFFSET 0.000000 0.000000 0.000000
						}
					}
				}
				JOINT lclavicle
				{
					OFFSET 0.071702 0.114000 -0.018898
					CHANNELS 3 Zrotation Yrotation Xrotation
					JOINT lshoulder
					{
						OFFSET 0.122921 0.045205 -0.019046
						CHANNELS 3 Zrotation Yrotation Xrotation
						JOINT lelbow
						{
							OFFSET 0.255332 -0.015649 -0.022946
							CHANNELS 3 Zrotation Yrotation Xrotation
							JOINT lwrist
							{
								OFFSET 0.265709 0.012698 -0.007375
								CHANNELS 3 Zrotation Yrotation Xrotation
								End Site
								{
									OFFSET 0.000000 0.000000 0.000000
								}
							}
						}
					}
				}
				JOINT rclavicle
				{
					OFFSET -0.082954 0.112472 -0.023707
					CHANNELS 3 Zrotation Yrotation Xrotation
					JOINT rshoulder
					{
						OFFSET -0.113228 0.046853 -0.008472
						CHANNELS 3 Zrotation Yrotation Xrotation
						JOINT relbow
						{
							OFFSET -0.260127 -0.014369 -0.031269
							CHANNELS 3 Zrotation Yrotation Xrotation
							JOINT rwrist
							{
								OFFSET -0.269108 0.006794 -0.006027
								CHANNELS 3 Zrotation Yrotation Xrotation
								End Site
								{
									OFFSET 0.000000 0.000000 0.000000
								}
							}
						}
					}
				}
			}
		}
	}
}
MOTION
Frames: 5
Frame Time: 0.033333
-0.040216 0.605642 0.985749 -30.819601 -1.410094 82.911209 -2.038774 2.794515 5.395148 1.951587 2.821031 4.087539 1.718714 10.176029 -11.326954 0.000000 -0.000000 0.000000 -2.954950 -6.719933 4.466500 -3.331656 -10.135653 0.748491 4.227120 -11.779703 -8.458807 0.000000 -0.000000 0.000000 -4.194659 5.636531 4.417137 -3.148164 -3.445690 10.372442 -1.999510 0.964897 2.672463 8.684403 -9.114318 5.032363 7.668624 -6.391539 -6.960764 -25.904262 -5.566395 -1.364595 -47.354677 -1.119499 3.905698 2.831964 -23.494307 -0.946399 2.769367 3.040152 -2.163692 12.126820 16.802916 -2.597001 36.713063 37.424717 6.939798 -146.235847 43.014426 -121.064002 -24.267201 4.059016 -12.738361 
-0.040055 0.605810 0.985647 -30.719288 -1.389320 82.820883 -2.004344 2.743400 5.433376 1.910324 2.670769 4.138570 1.541925 10.272186 -11.383041 0.000000 -0.000000 0.000000 -2.939940 -6.770999 4.560424 -3.343086 -10.177061 0.771206 4.393773 -11.801920 -8.589662 0.000000 -0.000000 0.000000 -4.020102 5.620725 4.694668 -3.311041 -3.474021 9.890238 -2.048049 0.909047 3.014930 8.655064 -9.163973 5.132012 7.817740 -6.298884 -7.042720 -25.699854 -5.778783 -1.409739 -47.488862 -0.946924 3.938765 3.011892 -23.417983 -0.897456 2.859263 3.043723 -2.531877 12.096260 17.146341 -2.790027 36.689805 37.255643 6.935521 -146.474811 42.769939 -121.298679 -24.437388 4.398377 -12.484810 
-0.040002 0.605847 0.985657 -30.662410 -1.379881 82.846112 -1.998482 2.734462 5.394361 1.910178 2.674648 4.147006 1.512776 10.243549 -11.406758 0.000000 -0.000000 0.000000 -2.919206 -6.807465 4.520104 -3.382197 -10.195349 0.781034 4.419032 -11.812471 -8.551882 0.000000 -0.000000 0.000000 -3.995891 5.624533 4.700677 -3.307109 -3.492745 9.820476 -2.048884 0.893947 3.082546 8.571073 -9.081228 5.056507 7.819138 -6.296509 -7.126190 -25.737284 -5.818059 -1.373251 -47.473682 -0.884538 3.874515 3.123997 -23.542889 -1.088564 2.820957 3.017416 -2.577127 12.233476 17.170074 -2.785252 36.596124 37.213678 6.965178 -146.966843 42.552380 -121.627408 -24.356112 4.548669 -12.076457 
-0.039954 0.605843 0.985694 -30.543965 -1.370903 82.869247 -1.999366 2.692549 5.362865 1.918309 2.665611 4.132254 1.504565 10.179777 -11.399270 0.000000 -0.000000 0.000000 -2.895456 -6.814148 4.521561 -3.411172 -10.251163 0.737471 4.442872 -11.890303 -8.511949 0.000000 -0.000000 0.000000 -4.008952 5.640610 4.754473 -3.274605 -3.503252 9.721251 -2.015790 0.904060 3.147533 8.483399 -8.992089 4.863531 7.785610 -6.313227 -7.220910 -25.798008 -5.823172 -1.305283 -47.470468 -0.924376 3.785924 3.228024 -23.642739 -1.324810 2.829953 2.927816 -2.579101 12.464030 17.042237 -2.736701 36.519997 36.982959 7.020981 -147.636450 42.278880 -121.999525 -24.452007 5.074691 -11.585817 
-0.039947 0.605830 0.985719 -30.505575 -1.369765 82.876208 -2.002856 2.677053 5.355534 1.923324 2.662717 4.125015 1.511305 10.155268 -11.388579 0.000000 -0.000000 0.000000 -2.897965 -6.816384 4.527162 -3.402619 -10.280482 0.725720 4.443933 -11.911222 -8.507021 0.000000 -0.000000 0.000000 -4.019721 5.643916 4.791239 -3.267729 -3.503478 9.670054 -2.002006 0.923059 3.155751 8.455073 -8.991163 4.805117 7.789291 -6.321454 -7.262372 -25.812998 -5.817903 -1.276306 -47.476356 -0.943243 3.749820 3.266570 -23.679001 -1.396837 2.773615 2.911315 -2.570891 12.529085 16.974196 -2.705629 36.537593 36.844216 7.032613 -147.810323 42.178905 -122.086977 -24.410035 5.280165 -11.454721 
